<?xml version="1.0" encoding="UTF-8"?><svg id="thumb-disc" xmlns="http://www.w3.org/2000/svg" viewBox="0 0 466.8 418.6" preserveAspectRatio="none"><defs><style>.cls-1{stroke-width:2px;}.cls-1,.cls-2{fill:none;stroke:#000;stroke-linecap:round;stroke-linejoin:round;}.cls-2{stroke-width:3px;}</style></defs><path d="M45.7,3.1c4.4,0,14.4,.5,37.5,2.8h1.1c16.1,1.7,26,4.4,35.6,15.2,10,11.1,15.5,25.9,19.6,38.9,12.7,40.6,19.6,76.5,21,110,.5,12.1,1.6,24,2.6,35.6,2.5,28.4,4.9,55.3-.1,83.7-4.7,26.9-15.6,51.5-31.5,71.2-16.5,20.6-38.4,35.5-63.2,43.2-2.1,.7-4.4,1.1-6.8,1.5-2.6,.5-5.2,.9-7.7,1.7-3.1,1-5.9,2.5-8.6,3.9-3.2,1.7-6.2,3.2-9.5,4-2.6,.6-5.1,.9-7.6,.9-13.2,0-22.7-8.4-24.3-21.5-3.3-27.6,2-57.5,7.1-86.4,1.8-10.4,3.6-20.2,5-30,1.6-11.1,3.1-22.4,4.5-33.4,4.6-34.6,9.3-70.3,16.6-104.8,1.1-5.3,2.2-10.8,3.1-16.1,6.9-39.8,8.4-80.3,4.4-120.4,.4,0,.8,0,1.3,0M45.7,0c-2.9,0-4.6,.2-4.6,.7,4.3,40.7,2.9,81.9-4.1,122.2-.9,5.4-2,10.7-3.1,16-9.6,45.5-14.7,92.2-21.2,138.3C7.6,314.7-3.8,356.6,.7,394.5c1.9,15.5,13.4,24.1,27.3,24.1s5.5-.3,8.3-1c6.6-1.5,12-5.9,18.3-7.9,4.6-1.5,9.8-1.8,14.5-3.2,52.9-16.3,87.2-62.5,96.7-116.7,7.2-40.9-.7-79.3-2.4-120-1.6-37.3-9.9-75-21.1-110.7-4.5-14.4-10.2-28.9-20.2-40-10.8-12.1-22.5-14.6-37.6-16C81.7,2.7,56.3,0,45.7,0h0Z"/><path class="cls-1" d="M199.2,378.9c-2.3-84.4-4.5-169.1,6-252.9,4.7-37,11.8-74,9.5-111.2"/><path class="cls-1" d="M167.9,395.9c7.6,2.9,13.4,8.9,20.1,13.3,18.8,12.3,44.2,11.5,65.3,3.3,21.1-8.2,43.1-17.4,60.4-31.7,5.8-4.8,7.5-15.1,10-22.1,2.5-7,1.1-14.7-.5-22-3.5-17.1-7.4-34.6-17.1-49.2-8.5-12.7-20.9-22.4-30.9-34-43.5-50-34.2-138.5,25.7-172.2,16.3-9.2,64.6-14.1,114,44.4"/><path class="cls-2" d="M427.7,32.1c-52.1-10.5-91.7,11.7-109.4,61.8-9.6,26.9-8.4,56.4-5.4,84.9,5.4,51,16.7,102.2,42.1,146.7,4.5,7.8,26,23.5,33.4,25.4,24.3,6.2,54.9,8.5,77.7-2.2"/></svg>