<?xml version="1.0" encoding="UTF-8"?><svg id="thumb-rubber" xmlns="http://www.w3.org/2000/svg" viewBox="0 0 1003 503" preserveAspectRatio="none"><path d="M913.8,4.6c9.8,0,18.5,1.2,25.9,3.5,9,2.8,17.1,8.3,23.9,16.3h0c7,7.8,12.8,18,17.8,31.3,4.6,12.2,8.1,26.4,10.5,42.3,2.3,15.4,3.4,31.9,3.4,49.1,0,36-3.9,64.3-12,86.5-5.8,16.1-14,29.4-24.3,39.5l-1.5,1.5,.9,2c3.4,7.1,6.7,15.4,9.8,24.8,5.8,17.2,11,35.7,15.6,55,4.5,19.2,8.1,36.8,10.6,52.3,3.5,21.8,3.9,30,3.9,34.4,0,7.4-.9,14.9-2.7,22.2-2.1,8.4-5.1,15.1-9.2,20.5-6.2,8.3-14.8,12.9-24.4,12.9s-20.9-6.2-26.9-17.1c-3.5-6.2-6.3-13.6-8.7-22.6-2-7.6-4.6-18.4-7.9-32.9l-14-60.6c-3.1-13.7-6-25.4-8.6-34.9l-6-21.3v114.9c0,21.3-1.9,37.1-5.9,48.3-3.6,10.2-8.9,17.5-15.7,21.8-5.7,3.7-11.5,4.4-15.3,4.4-8.2,0-16-3.5-21.8-9.8-1.6-1.8-3.2-3.9-4.6-6.2l-2-3.3-2.8,2.7c-12.4,12.3-19.6,16.6-22,16.6h-94.8c-16.2,0-28.8-17.9-34.6-33.2-2.7-7.1-4.5-16-5.4-27.3l-1.1-13.6-4.7,12.7c-4.9,13-10.7,23.3-17.7,31.4l-.3,.4c-1.9,2.1-3.8,4.3-5.8,6.8-6.2,7.4-13.1,15.7-20.3,18.2-8.8,3-19,4.6-30.2,4.6h-52.6c-16.4,0-28.9-18.1-34.6-33.6-1.1-2.9-2-6.3-2.8-10l-1.7-7.9-3.9,7.1c-3.1,5.5-6.5,10.4-10.1,14.5l-.3,.4c-1.9,2.1-3.8,4.3-5.8,6.8-6.2,7.4-13.1,15.7-20.3,18.2-8.8,3-19,4.6-30.2,4.6h-52.6c-16.4,0-28.9-18.1-34.6-33.6-1.5-4.1-2.7-9-3.7-14.5l-1.6-9.6-4.1,8.8c-7,15-15.1,26.2-24.8,34.1-11.8,9.7-25.8,14.6-41.4,14.6s-33-5-46-15c-8.7-6.7-16.3-15.8-22.6-27.3l-4.3-7.8-1.4,8.8c-.4,2.7-1,5.4-1.6,8-2.1,8.4-5.1,15.1-9.1,20.5-6.2,8.3-14.8,12.9-24.4,12.9s-20.9-6.2-26.9-17.1c-3.5-6.2-6.3-13.6-8.7-22.6-2-7.6-4.6-18.3-7.9-32.9l-14-60.6c-3.1-13.7-6-25.4-8.6-34.9l-6-21.3v114.9c0,21.3-1.9,37.1-5.9,48.3-3.6,10.2-8.9,17.5-15.7,21.8-5.7,3.7-11.5,4.4-15.3,4.4-8.2,0-16-3.5-21.8-9.8-4.1-4.4-7.2-10.2-9.6-17.6-3.7-11.4-5.5-26.8-5.5-47.1V79.4c0-22.4,2-38.1,6.3-49.3C17.1,13.9,29.7,4.6,45.4,4.6h56.7c9.8,0,18.5,1.2,25.9,3.5,9,2.8,17.1,8.3,23.9,16.3h0c4.2,4.7,7.8,10.1,11.2,16.5l3.9,7.3,1.8-8.1c.7-3.2,1.6-6.3,2.5-9,3.6-10.2,8.8-17.5,15.5-21.9,5.7-3.7,11.4-4.4,15.2-4.4s9.7,.8,15.4,4.4c6.8,4.3,12,11.7,15.6,21.9,3.9,11.1,5.8,26.4,5.8,46.8v216.6c0,11.2,.2,22.8,2,31.3,2.2,10.2,7,15.4,14.2,15.4s12.2-1.1,16-9.5c3-6.5,4.2-17.1,4.2-35.4V77.9c0-20.6,1.9-35.9,5.8-46.9,3.6-10.1,8.8-17.4,15.5-21.7,5.7-3.7,11.5-4.4,15.3-4.4,7,0,16.9,2.4,24.8,13.9l2.4,3.5,2.5-3.4c6.9-9.3,16.7-14.2,28.3-14.2h55.8c10.9,0,20.8,1.9,29.3,5.6,9.6,4.2,17.9,11.8,24.8,22.6,2.9,4.6,5.6,9.6,8.1,15.4l4.2,9.9,1.6-10.6c1-6.9,2.4-12.6,4.3-17.5,6.2-16.1,18.7-25.4,34.3-25.4h55.8c10.9,0,20.8,1.9,29.3,5.6,9.6,4.2,17.9,11.8,24.8,22.6,5,7.8,9.2,17.1,12.9,28.4,1.2,3.9,2.4,8,3.5,12.2l5.5,22.2,.5-22.9c.2-11.3,1-20.6,2.5-28.6,2.1-11.7,5.8-20.5,11.2-26.9,6.8-8.1,16.5-12.6,27.1-12.6h92.1c10.8,0,20.2,5,26.4,14.1l2.4,3.5,2.6-3.4c7-9.3,16.8-14.2,28.4-14.2h56.7m-175.5,179.9h52.9c7.6,0,14.5,2.5,20.1,7.3l5,4.3V107.3l-4.4,2.3c-4.4,2.3-9.3,3.4-14.5,3.4h-59.1v71.6m151.8,11.3h11.8c4.4,0,7.9-.8,10.3-2.4,1.9-1.3,3.9-4.6,5.4-9.3,1.6-4.9,3.6-14.3,3.6-31.4s-1-20.2-3-28.1c-1.6-6.1-3.2-9.5-4.4-11.3l-.7-1.1-1.2-.3c-1.6-.4-4.4-.8-9-.8h-12.7v84.7m-324.5-7.3h12.5c3.3,0,5.1-.5,5.9-.8l1-.4,.5-.9c.9-1.5,2.8-5.3,4.5-13.4v-.4c1.7-7.1,2.5-15.4,2.5-24.5,0-24.4-3.9-31.5-4.7-32.7v-.2h-.2c-2.3-2.9-6.6-4.2-13.2-4.2h-8.8v77.4m-162.3,0h12.5c3.3,0,5.1-.5,5.9-.8l1-.4,.6-.9c.9-1.5,2.8-5.3,4.5-13.4v-.4c1.7-7.1,2.5-15.4,2.5-24.5,0-24.4-3.9-31.5-4.7-32.7v-.2h-.2c-2.3-2.9-6.6-4.2-13.2-4.2h-8.8v77.4m-324.9,7.3h11.8c4.4,0,7.9-.8,10.3-2.4,1.9-1.3,3.9-4.6,5.4-9.3,1.6-4.9,3.5-14.3,3.5-31.4s-1-20.2-3-28.1c-1.6-6.1-3.2-9.5-4.4-11.3l-.7-1.1-1.2-.3c-1.6-.4-4.4-.8-9-.8h-12.7v84.7m586.2,72v-90.9l-6,22.6c-3.1,11.6-7.2,22.1-12.2,31.2l-1,1.7,1.2,1.6c4.6,6.1,8.7,13,12.2,20.7l5.8,13m-172.7-23v-29.5l-5.8,11.4c-.8,1.5-1.5,2.8-2.1,4l-1,1.7,1.2,1.6c.6,.8,1.3,1.8,2.1,2.9l5.5,7.9m-325.7,86.2l-.4-21c-.1-6.7-.2-13.6-.2-20.4v-41l-5.6,8.7c-3.7,5.8-8,11-12.6,15.6l-1.5,1.5,.9,2c3.4,7.1,6.7,15.4,9.8,24.8,1,2.9,2,6.1,3.2,9.8l6.3,20m572.2,49.3h61.8c2.8,0,7.2,.4,12,2.4l4.2,1.7v-104.8l-5,4.3c-5.6,4.9-12.6,7.4-20.1,7.4h-52.9v89m-172.7,4h18c3.4,0,6.2-.5,9.3-6.3,2.5-4.6,6.6-16.1,6.6-40.8s-4-35.4-6.4-39.4c-2.6-4.3-5.4-5.8-10.6-5.8h-16.8v92.3m-162.3,0h18c3.4,0,6.2-.5,9.3-6.3,2.5-4.6,6.6-16.1,6.6-40.8s-4-35.4-6.4-39.4c-2.6-4.3-5.4-5.8-10.6-5.8h-16.8v92.3M913.8,1.5h-56.7c-12.6,0-23.4,5.5-30.8,15.5-6.8-9.9-16.9-15.5-28.9-15.5h-92.1c-11.6,0-22,4.9-29.5,13.7-5.8,6.9-9.6,16.1-11.8,28.3-1.5,8.1-2.3,17.6-2.5,29.1-1.1-4.3-2.2-8.4-3.5-12.4-3.8-11.6-8.1-21.1-13.2-29.1-7.2-11.3-15.9-19.3-26.1-23.7-8.9-3.9-19.2-5.9-30.5-5.9h-55.8c-17,0-30.5,10-37.2,27.3-2,5.1-3.4,11.1-4.5,18.2-2.5-5.9-5.3-11.2-8.3-15.9-7.2-11.3-15.9-19.3-26.1-23.7-8.9-3.9-19.2-5.9-30.5-5.9h-55.8c-12.6,0-23.3,5.5-30.7,15.4-8.9-13-20.4-15.3-27.4-15.3s-25,3.7-33.6,28.2c-4,11.4-5.9,27-5.9,48v218.4c0,35.3-4.8,41.8-17.2,41.8s-13.2-20.1-13.2-43.6V77.9c0-20.7-2-36.3-6-47.8C227.4,5.4,211.1,1.7,202.1,1.7s-24.9,3.7-33.6,28.3c-1,2.8-1.9,6-2.6,9.3-3.5-6.6-7.4-12.3-11.7-17.1-7.2-8.4-15.7-14.2-25.3-17.2-7.7-2.4-16.8-3.6-26.8-3.6H45.4C28.4,1.5,14.8,11.5,8,29,3.6,40.6,1.5,56.6,1.5,79.4V424c0,20.7,1.9,36.4,5.7,48.1,2.5,7.8,5.9,13.9,10.3,18.7,6.4,7,14.9,10.8,24.1,10.8s25-3.7,33.8-28.3c4.1-11.5,6.1-27.6,6.1-49.3v-92.8c2.6,9.4,5.5,21,8.6,34.7l14,60.6c3.4,14.6,6,25.4,8,33,2.4,9.2,5.3,16.9,8.9,23.3,6.6,11.9,17.4,18.7,29.6,18.7s20-5,26.8-14.1c4.3-5.8,7.5-12.9,9.7-21.6,.7-2.7,1.2-5.5,1.7-8.3,6.5,11.8,14.3,21.2,23.4,28.2,13.5,10.3,29.6,15.6,47.8,15.6s31-5.1,43.4-15.3c10-8.2,18.4-19.7,25.6-35.1,1,5.7,2.2,10.7,3.8,15,6.5,17.8,20.2,35.6,37.4,35.6h52.6c11.6,0,22.1-1.6,31.2-4.7,10.4-3.6,19.6-17.3,27.4-25.8l.4-.4c3.8-4.4,7.3-9.4,10.5-15.1,.8,3.8,1.8,7.3,2.9,10.4,6.5,17.8,20.2,35.6,37.4,35.6h52.6c11.6,0,22.1-1.6,31.2-4.7,10.4-3.6,19.6-17.3,27.4-25.8l.4-.4c7.3-8.3,13.4-19,18.3-32.4,1,11.6,2.8,20.7,5.6,28.1,6.7,17.5,20.3,35.2,37.4,35.2h94.8c5,0,15.4-8.8,24.1-17.5,1.5,2.5,3.1,4.7,4.9,6.7,6.4,7,14.9,10.8,24.1,10.8s25-3.7,33.8-28.3c4.1-11.5,6.1-27.6,6.1-49.3v-92.8c2.6,9.4,5.5,21,8.6,34.7l14,60.6c3.4,14.6,6,25.4,8,33,2.4,9.2,5.3,16.9,8.9,23.3,6.6,11.9,17.4,18.7,29.6,18.7s20-5,26.8-14.1c4.3-5.8,7.5-12.9,9.7-21.6,1.9-7.5,2.8-15.2,2.8-22.9s-.4-12.9-4-34.8c-2.5-15.6-6.1-33.3-10.6-52.5-4.6-19.4-9.8-38.1-15.7-55.3-3.2-9.5-6.5-17.8-10-25.1,10.6-10.5,19-24.1,25-40.7,8.2-22.6,12.2-51.2,12.2-87.6s-1.2-33.9-3.5-49.5c-2.4-16.1-6-30.5-10.6-42.9-5.1-13.6-11.2-24.1-18.4-32.2-7.2-8.4-15.7-14.2-25.3-17.2-7.7-2.4-16.8-3.6-26.8-3.6h0Zm-172.5,179.9V116h56.1c5.8,0,11.1-1.3,15.8-3.7v77.2c-6.1-5.2-13.6-8-22.1-8h-49.8Zm151.8,11.3V114.2h9.7c4.4,0,7,.4,8.4,.7,1,1.6,2.5,4.7,4,10.5,2,7.6,3,16.9,3,27.4,0,16.7-1.8,25.8-3.4,30.5-1.7,5-3.4,7.2-4.2,7.7-1.9,1.3-4.8,1.9-8.6,1.9h-8.7Zm-324.5-7.3V114.2h5.8c5.5,0,9.2,1,10.9,3,.4,.5,4.2,6.9,4.2,31s-.8,16.9-2.4,23.8v.4c-1.8,8.1-3.6,11.5-4.2,12.5-.6,.2-2.2,.6-4.9,.6h-9.4Zm-162.3,0V114.2h5.8c5.5,0,9.2,1,10.9,3,.4,.6,4.2,6.9,4.2,31s-.8,16.9-2.4,23.8v.4c-1.8,8.1-3.6,11.5-4.2,12.5-.6,.2-2.2,.6-4.9,.6h-9.4Zm-324.9,7.3V114.2h9.7c4.4,0,7,.4,8.4,.7,1,1.6,2.5,4.7,4,10.5,2,7.6,3,16.9,3,27.4,0,16.7-1.8,25.8-3.4,30.5-1.7,5-3.4,7.2-4.2,7.7-1.9,1.3-4.8,1.9-8.6,1.9h-8.7Zm580.1,60.8c-3.5-7.9-7.7-15-12.5-21.3,5.2-9.4,9.4-20,12.5-31.9v53.2h0Zm-172.7-18.3c-.7-1-1.4-2-2.2-3,.8-1.4,1.5-2.7,2.2-4.1v7.1h0Zm-326.1,74.8c-1.1-3.3-2.1-6.6-3.2-9.9-3.2-9.5-6.5-17.8-10-25.1,4.8-4.7,9.1-10.1,13-16.1v30.7c0,7,0,13.8,.2,20.4h0Zm578.6,67.2v-82.9h49.8c8.4,0,16-2.9,22.1-8.2v93.6c-5.3-2.2-10.2-2.6-13.1-2.6h-58.8Zm-172.7,4v-86.2h13.8c4.2,0,6,1,8,4.4,1.8,3,6,12.7,6,37.8s-3.9,35-6.2,39.3c-2.5,4.7-4.2,4.7-6.6,4.7h-15Zm-162.3,0v-86.2h13.8c4.2,0,6,1,8,4.4,1.8,3,6,12.7,6,37.8s-3.9,35-6.2,39.3c-2.5,4.7-4.2,4.7-6.6,4.7h-15Z"/></svg>