<?xml version="1.0" encoding="UTF-8"?><svg id="Layer_1" xmlns="http://www.w3.org/2000/svg" viewBox="0 0 1002 267.6" preserveAspectRatio="none" vector-effect="non-scaling-stroke"><path d="M950.2,2.9c12.7,0,23.5,9.5,25.2,22l.2,1.5,1.5,.2c12.5,1.7,22,12.5,22,25.2v93.8c0,12.7-9.5,23.5-22,25.2l-1.5,.2-.2,1.5c-.3,2.6-1.1,5.1-2.2,7.5l-.4,.8,.4,.8c1.1,2.4,1.9,4.9,2.2,7.5l.2,1.5,1.5,.2c12.5,1.7,22,12.5,22,25.2v23.4c0,14-11.4,25.4-25.4,25.4h-23.4c-12.7,0-23.5-9.5-25.2-22l-.2-1.5-1.5-.2c-5.6-.7-10.8-3.4-14.7-7.4l-3.3-3.4v9.1c0,14-11.4,25.4-25.4,25.4h-23.4c-6.1,0-12-2.3-16.7-6.4l-1.3-1.1-1.3,1.1c-4.7,4.1-10.6,6.4-16.7,6.4h-117.2c-14,0-25.4-11.4-25.4-25.4v-19l-3.7,7.1c-3.8,7.4-11,12.5-19.1,13.6l-1.5,.2-.2,1.5c-1.7,12.5-12.5,22-25.2,22h-93.8c-14,0-25.4-11.4-25.4-25.4v-19l-3.7,7.1c-3.8,7.4-11,12.5-19.1,13.6l-1.5,.2-.2,1.5c-1.7,12.5-12.5,22-25.2,22h-93.8c-14,0-25.4-11.4-25.4-25.4v-19l-3.7,7.1c-3.8,7.4-11,12.5-19.1,13.6l-1.5,.2-.2,1.5c-1.7,12.5-12.5,22-25.2,22h-70.3c-12.7,0-23.5-9.5-25.2-22l-.2-1.5-1.5-.2c-8.1-1.1-15.2-6.2-19.1-13.6l-3.7-7.1v19c0,14-11.4,25.4-25.4,25.4h-23.4c-12.7,0-23.5-9.5-25.2-22l-.2-1.5-1.5-.2c-5.6-.7-10.8-3.4-14.7-7.4l-3.3-3.4v9.1c0,14-11.4,25.4-25.4,25.4H28.3c-14,0-25.4-11.4-25.4-25.4V28.3C2.9,14.3,14.3,2.9,28.3,2.9H122.1c12.7,0,23.5,9.5,25.2,22l.2,1.5,1.5,.2c8.1,1.1,15.2,6.2,19.1,13.6l3.7,7.1V28.3c0-14,11.4-25.4,25.4-25.4h23.4c14,0,25.4,11.4,25.4,25.4V190.4h19.5V28.3c0-14,11.4-25.4,25.4-25.4h23.4c10.8,0,20.4,6.9,23.9,17.3l1.8,5.4,1.8-5.4c3.5-10.3,13.1-17.3,23.9-17.3h93.8c12.7,0,23.5,9.5,25.2,22l.2,1.5,1.5,.2c8.1,1.1,15.2,6.2,19.1,13.6l3.7,7.1V28.3c0-14,11.4-25.4,25.4-25.4h93.8c12.7,0,23.5,9.5,25.2,22l.2,1.5,1.5,.2c8.1,1.1,15.3,6.2,19.1,13.6l3.7,7.1V28.3c0-14,11.4-25.4,25.4-25.4h117.2c6.1,0,12,2.3,16.7,6.4l1.3,1.1,1.3-1.1c4.7-4.1,10.6-6.4,16.7-6.4h93.7m-198,93.8h44.9c14,0,25.4,11.4,25.4,25.4v23.4c0,14-11.4,25.4-25.4,25.4h-44.9v19.5h68.4c2.5,0,5.1,.5,8,1.4l2.6,.9V74.9l-2.6,.9c-2.9,.9-5.5,1.4-8,1.4h-68.4v19.5m153.1,23.4h19.5v-43h-19.5v43m-321.9-23.4h19.5v-19.5h-19.5v19.5m-168.7,0h19.5v-19.5h-19.5v19.5M77.1,120.1h19.5v-43h-19.5v43m94.5,91.2v-61.4l-3.7,7.1c-3.8,7.4-11,12.5-19.1,13.6l-1.5,.2-.2,1.5c-.3,2.6-1.1,5.1-2.2,7.5l-.4,.8,.4,.8c1.1,2.4,1.9,4.9,2.2,7.5l.2,1.5,1.5,.2c8.1,1.1,15.2,6.2,19.1,13.6l3.7,7.1m411.7-20.9h19.5v-19.5h-19.5v19.5m-168.7,0h19.5v-19.5h-19.5v19.5M950.2,1h-93.7c-6.9,0-13.2,2.6-18,6.9-4.8-4.2-11.1-6.9-18-6.9h-117.2c-15.1,0-27.3,12.2-27.3,27.3v11c-4-7.8-11.5-13.4-20.6-14.6-1.8-13.4-13.2-23.7-27.1-23.7h-93.8c-15.1,0-27.3,12.2-27.3,27.3v11c-4-7.8-11.5-13.4-20.6-14.6-1.8-13.4-13.2-23.7-27.1-23.7h-93.8c-12,0-22.1,7.8-25.8,18.6-3.7-10.8-13.8-18.6-25.8-18.6h-23.4c-15.1,0-27.3,12.2-27.3,27.3V188.5h-15.6V28.3c0-15.1-12.2-27.3-27.3-27.3h-23.4c-15.1,0-27.3,12.2-27.3,27.3v11c-4-7.8-11.5-13.4-20.6-14.6-1.8-13.4-13.2-23.7-27.1-23.7H28.3C13.2,1,1,13.2,1,28.3V239.3c0,15.1,12.2,27.3,27.3,27.3h23.4c15.1,0,27.3-12.2,27.3-27.3v-4.3c4.2,4.2,9.7,7.1,15.9,8,1.8,13.4,13.2,23.7,27.1,23.7h23.4c15.1,0,27.3-12.2,27.3-27.3v-11c4,7.8,11.5,13.4,20.6,14.6,1.8,13.4,13.2,23.7,27.1,23.7h70.3c13.9,0,25.3-10.3,27.1-23.7,9-1.2,16.6-6.9,20.6-14.6v11c0,15.1,12.2,27.3,27.3,27.3h93.8c13.9,0,25.3-10.3,27.1-23.7,9-1.2,16.5-6.9,20.6-14.6v11c0,15.1,12.2,27.3,27.3,27.3h93.8c13.9,0,25.3-10.3,27.1-23.7,9-1.2,16.6-6.9,20.6-14.6v11c0,15.1,12.2,27.3,27.3,27.3h117.2c6.9,0,13.2-2.6,18-6.9,4.8,4.2,11.1,6.9,18,6.9h23.4c15.1,0,27.3-12.2,27.3-27.3v-4.3c4.2,4.2,9.7,7.1,15.9,8,1.8,13.4,13.2,23.7,27.1,23.7h23.4c15.1,0,27.3-12.2,27.3-27.3v-23.4c0-13.9-10.3-25.3-23.7-27.1-.4-2.8-1.2-5.6-2.4-8.1,1.2-2.5,2-5.2,2.4-8.1,13.4-1.8,23.7-13.2,23.7-27.1V51.8c0-13.9-10.3-25.3-23.7-27.1-1.8-13.4-13.2-23.7-27.1-23.7h0Zm-196.1,93.8v-15.6h66.4c3,0,5.9-.6,8.6-1.5v112.4c-2.7-.9-5.6-1.5-8.6-1.5h-66.4v-15.6h43c15.1,0,27.3-12.2,27.3-27.3v-23.4c0-15.1-12.2-27.3-27.3-27.3h-43Zm153.1,23.4v-39.1h15.6v39.1h-15.6Zm-321.9-23.4v-15.6h15.6v15.6h-15.6Zm-168.7,0v-15.6h15.6v15.6h-15.6ZM79.1,118.2v-39.1h15.6v39.1h-15.6Zm90.6,85.2c-4-7.8-11.5-13.4-20.6-14.6-.4-2.8-1.2-5.6-2.4-8.1,1.2-2.5,2-5.2,2.4-8.1,9-1.2,16.5-6.9,20.6-14.6v45.3h0Zm415.6-14.9v-15.6h15.6v15.6h-15.6Zm-168.7,0v-15.6h15.6v15.6h-15.6Z" vector-effect="non-scaling-stroke"/></svg>