<?xml version="1.0" encoding="UTF-8"?>
<svg id="Layer_1" data-name="Layer 1" xmlns="http://www.w3.org/2000/svg" viewBox="0 0 999 399"  preserveAspectRatio="none">
  <defs>
    <style>
      .cls-1 {
        fill: none;
        stroke: #000;
        stroke-miterlimit: 10;
        stroke-width: 4px;
        vector-effect: non-scaling-stroke;
      }
    </style>
  </defs>
  <polygon class="cls-1" points="228 .5 192.3 .5 190.7 .5 153.5 .5 115.4 .5 114.6 .5 77.4 .5 76.6 .5 39.3 .5 38.5 .5 .5 .5 .5 50.2 38.5 50.2 39.3 50.2 76.6 50.2 77.4 50.2 114.6 50.2 114.6 100 114.6 149.7 114.6 199.5 114.6 249.2 114.6 299 114.6 348.7 114.6 398.5 153.5 398.5 153.5 348.7 153.5 299 153.5 249.2 153.5 199.5 153.5 149.7 153.5 100 192.3 100 192.3 50.2 228 50.2 229.5 50.2 266.8 50.2 266.8 .5 229.5 .5 228 .5"/>
  <polygon class="cls-1" points="333.5 100 333.5 398.5 363 398.5 401.8 398.5 401.8 348.7 401.8 149.7 401.8 100 363 100 333.5 100"/>
  <rect class="cls-1" x="363" y=".5" width="38.8" height="49.8"/>
  <rect class="cls-1" x="652.2" y=".5" width="38.8" height="49.8"/>
  <path class="cls-1" d="M965.7,100V50.2h-24.9V.5h-175.3V398.5h165.3v-49.7h34.8v-49.8h32.8V100h-32.8Zm-50.8,199v49.7h-71.7V50.2h71.7v49.7h34.8v199h-34.8Z"/>
  <polygon class="cls-1" points="652.2 299 613.4 299 613.4 348.7 574.6 348.7 574.6 299 535.7 299 535.7 249.2 496.3 249.2 496.3 348.7 535.7 348.7 535.7 398.5 574.6 398.5 613.4 398.5 652.2 398.5 691.1 398.5 691.1 100 652.2 100 652.2 299"/>
</svg>