<?xml version="1.0" encoding="UTF-8"?>
<svg id="Layer_1" data-name="Layer 1" xmlns="http://www.w3.org/2000/svg" viewBox="0 0 1276.7 544.5" preserveAspectRatio="none">
  <path d="M1273.3,480.7l-73.6-191.8c10-5.4,20.3-12.6,29.9-22.1,28.1-27.9,42.3-66.7,42.3-115.5s-14.5-88.9-43-116.1C1193.9,1.7,1150.8,.3,1140.7,.5h-65c-15.9,0-30,7.9-38.5,20-8.5-12.1-22.6-20-38.5-20h-92.8c-11.1,0-34.2-.2-53.4,18.9-9.5,9.5-15.2,20.9-18.8,32.2-4.4-5.8-8.8-10.6-13.1-14.7C783.7,1.5,737.4,.3,727.2,.5h-66.9c-19.5,0-36.2,11.8-43.3,28.7C581.8,1.4,541.7,.3,532.2,.5h-66.9c-11.7,0-22.4,4.3-30.6,11.3-8.3-7.4-19.2-11.8-31.2-11.8-26,0-47,21-47,47V397.3c0,.2-.3,16.5-6.1,31.7-6.8,17.9-14.1,17.9-20,17.9s-8.8-1.9-9.9-3c-7.8-8.2-11.2-30.7-10.6-44V47c0-26-21-47-47-47s-47,21-47,47v6.4c-4.7-6.6-9.9-12.7-15.8-18.2C165.2,1.7,122.1,.3,112,.5H47C21,.5,0,21.5,0,47.5V497.5c0,26,21,47,47,47s47-21,47-47v-147.1l62.9,163.9c7.2,18.7,25,30.2,43.9,30.2s11.3-1,16.8-3.1c16.9-6.5,27.9-21.6,29.8-38.4,1.5,1.8,3,3.6,4.7,5.3,20.1,21.3,47.2,32.6,78.3,32.6s66.6-15.1,87.9-42.4c.5,25.5,21.4,46,47,46h64.1c4,0,40.2-.6,76.7-21.7,3.8-2.2,7.4-4.5,10.9-7,7.1,16.8,23.8,28.7,43.3,28.7h64.1c4,0,40.2-.6,76.7-21.7,11.5-6.6,21.8-14.6,30.9-23.7,2.2,4,4.6,7.7,7.2,11.2,25.6,34.2,61.7,34.2,79.1,34.2h80.6c15.9,0,30-7.9,38.5-20,8.5,12.1,22.6,20,38.5,20,26,0,47-21,47-47v-147.1l62.9,163.9c7.2,18.7,25,30.2,43.9,30.2s11.3-1,16.8-3.1c24.2-9.3,36.3-36.5,27.1-60.7h-.3ZM130.1,203.9c-8.9,6.3-19,7.4-21.3,7.6-5.2-.2-10.2,.5-14.9,1.9V94.5h20.2c2.2,0,10.7,.9,18,6,14.1,9.9,17.1,33.1,17.1,50.7,0,26-6.4,43.7-19.1,52.6h0Zm40.9,85.1c10-5.4,20.3-12.6,29.9-22.1,5.6-5.5,10.6-11.5,15.1-17.9v147.3c0,2.1-.2,5.4,0,9.8l-44.9-117.1h-.1ZM512.3,94.5h22.1c2.7,0,17,1.1,26.7,10.7,11.1,11.1,13.4,31.1,13.4,46s-2.9,42.4-16.6,53.7c-6.4,5.3-13.8,6.3-15.4,6.5-1.3,0-2.2,.1-2.8,.1-10.6,.8-20.1,5.1-27.5,11.6V94.5h0Zm16.7,356h0Zm32.2-10.4c-14.5,9.3-30.6,10.3-32.3,10.4h-16.6v-156.8c8.2,7.2,19,11.7,30.7,11.7h3.2c2.4,0,15.7,.5,25.7,10.3,10.9,10.7,16.7,31,16.7,58.9s0,48-27.5,65.6h0ZM707.2,94.5h22.6c.2,0,15.5,.5,25.8,10.3,11.5,11,13.9,31.3,13.9,46.5s-2.9,42.4-16.6,53.7c-6.4,5.3-13.8,6.3-15.4,6.5-1.3,0-2.2,.1-2.8,.1-10.6,.8-20.1,5.1-27.5,11.6V94.5Zm16.7,356h0Zm32.2-10.4c-14.5,9.3-30.6,10.3-32.3,10.4h-16.6v-156.8c8.2,7.2,19,11.7,30.7,11.7h3.2c2.4,0,15.7,.5,25.7,10.3,10.9,10.7,16.7,31,16.7,58.9s0,48-27.5,65.6h0Zm162,10.3h-5.5c-2.9-7.2-8.2-27.3-8.2-76s5.8-48.2,16.7-58.9c10-9.7,23.3-10.3,25.7-10.3h3.2c25.2-.2,45.8-20.2,46.6-45.4,.9-25.2-18.3-46.6-43.4-48.5-.5,0-1.5-.1-2.8-.1-1.6-.2-8.9-1.2-15.4-6.5-13.7-11.2-16.6-35.4-16.6-53.7,0-28.7,1.1-46.2,2.3-56.8h78c11.4,0,21.8-4.1,30-10.8V461.3c-8.1-6.7-18.6-10.8-30-10.8h-80.6Zm240.8-246.6c-8.9,6.3-19,7.4-21.3,7.6-5.2-.2-10.2,.5-14.9,1.9V94.5h20.2c2.2,0,10.7,.9,18,6,14.1,9.9,17.1,33.1,17.1,50.7,0,26-6.4,43.7-19.1,52.6h0Z"/>
</svg>