<?xml version="1.0" encoding="UTF-8"?>
<svg id="Layer_1" data-name="Layer 1" xmlns="http://www.w3.org/2000/svg" viewBox="0 0 997.6 402" preserveAspectRatio="none">
  <defs>
    <style>
      .cls-1 {
        fill: none;
        stroke: #000;
        stroke-linecap: round;
        stroke-linejoin: round;
        stroke-width: 4px;
        vector-effect: non-scaling-stroke;
      }
    </style>
  </defs>
  <path class="cls-1" d="M26.8,267.2c7.4-47,26.9-84.3,42.3-124.6,12.2-31.8,21.8-66.2,19.4-105.9-.5-8.1-1.4-16.8,.9-23.9,2.1-6.4,6.3-9.7,10.2-10.2,23.4-3.3,81.5,6.3,106.8,16.5,51.7,20.9,96.9,79,111.4,173.8,12.5,82.2-30.9,207.3-196.1,207S2.2,377.2,6.9,349.7"/>
  <path class="cls-1" d="M423.5,325.1c-1.8-29.1-12.4-54.8-16.1-83.1-7.2-54.5,23.4-84.3,15.9-137.6"/>
  <path class="cls-1" d="M334.8,343.9c0,42.9,125,60,168.5,48.7,36.1-9.3,74.2-7.7,105.5-49.4,6.1-8.2,11.7-17.9,15.5-30.3,4.8-16.2,8.7-37.6,1.7-53.8-7.6-17.5-23.9-29.4-39-37.8-15.1-8.4-31.4-14.4-46.3-23.8-16.2-10.2-31.4-25.9-36-46.9-6.4-28.6,4-58.3,19.8-80.7,15.7-22.4,12.8-15.9,20.7-22,8.1-6.3,17-11.2,26.7-13.8,24.1-6.5,112.9-12.5,185.1,44.4"/>
  <path class="cls-1" d="M926.9,64.4c-37.3-44.1-84.7-52.1-128.7-42.9-35.3,7.5-81,14.6-106.1,64.8-15.9,31.7-19,54.2-19.7,100.7-.7,44.7,10.8,102.9,27.6,134.4,57,107.7,265.4,82.1,295.7,53.2"/>
  <path class="cls-1" d="M397.3,101.6c-18.7-3.1-24.2-32.3-8.3-42.9,4.6-3.1,9.9-4.5,15.4-5.7,13.4-3.1,31.7-6.9,43.2,3.7,12.2,11.3,14.8,36.6,1.2,47.8"/>
</svg>