<?xml version="1.0" encoding="UTF-8"?><svg id="Layer_1" xmlns="http://www.w3.org/2000/svg" viewBox="0 0 503.6 406.3" preserveAspectRatio="none"><defs><style>.cls-1{fill:none;stroke:#000;stroke-width:2px:vector-effect:non-scaling-stroke;}</style></defs><path class="cls-1" d="M131.1,17.1l-13.9,13.6H15.8L2.1,17.1,15.8,3.7H117.1l13.9,13.4Zm-50.8,170.7l-10.3,10.4-17.1-17.2V51.5l13.7-13.6,13.7,13.6V187.8Zm0,202.3l-13.7,13.5-13.7-13.5V225.2l17.1-16.9,10.3,10.1v171.6Z"/><path class="cls-1" d="M167.9,181.1V30.9L195.3,3.6V187.8l-10.3,10.4-17.1-17.2Zm27.4,37.4v184.2l-27.4-27V225.3l17.1-16.9,10.3,10.1Z"/><path class="cls-1" d="M238.2,230.7l10.3-10.4,17.1,17.1v133l-13.7,13.5-13.7-13.5V230.7Zm84.2,171.9l13.7-13.5-13.7-13.5h-51.6l-13.7,13.5,13.7,13.5h51.6Zm22.1-204.4l10.3-10.4V3.6l-27.4,27.3V181.1l17.1,17.2Zm10.3,20.3l-10.3-10.1-17.1,16.9v145.2l13.7,13.5,13.7-13.5V218.5Z"/><path class="cls-1" d="M385.6,187.8V8.8l27.4,26.6V180.9l-17.1,17.3-10.3-10.4Zm27.4,37.4v145.2l-27.4,27V218.5l10.3-10.1,17.1,16.9Zm-22.2,177.4l27.4-27h51.6l13.7,13.5-13.7,13.5h-78.9ZM483.5,17.1l-13.7,13.6h-51.6l-27.4-27h78.9l13.7,13.4Zm18.7,170.8l-10.3,10.4-17.1-17.1V35.9l13.7-13.5,13.7,13.5V187.8Zm0,182.6l-13.7,13.5-13.7-13.5V225.2l17.1-16.9,10.3,10.1v151.9Z"/></svg>